#!OML:ASF E:\Style4\Style4.ASF
:FULLY-SPECIFIED
:DEGREES
4169
root 0.288059 17.911 -2.77182 8.90686 -1.76333 1.62979
lowerback 16.2519 1.89313 -3.16415
upperback 9.68651 2.04405 -0.239643
thorax 1.10626 0.894538 1.22499
lowerneck 3.9804 -0.407036 -3.40407
upperneck 7.35852 -0.562768 -0.949676
head 1.62133 -0.375824 0.269735
rclavicle 1.87852e-014 -1.09332e-014
rhumerus 47.0892 -16.9854 -34.0608
rradius 49.6945
rwrist -16.6526
rhand -7.55726 4.83192
rfingers 7.12502
rthumb 18.3348 -24.324
lclavicle 1.87852e-014 -1.09332e-014
lhumerus 21.7561 -31.0695 48.1961
lradius 65.4138
lwrist 27.3742
lhand -11.0315 30.2687
lfingers 7.12502
lthumb 14.9902 59.7061
rfemur -27.8009 1.29397 17.2209
rtibia 32.1586
rfoot -12.1609 -14.0077
rtoes -9.71023
lfemur -26.1701 1.19174 -22.1201
ltibia 30.2775
lfoot -14.1649 10.6808
ltoes -8.85171
4170
root 0.288597 17.9151 -2.76805 9.02317 -1.69345 1.61061
lowerback 16.29 1.86233 -3.16064
upperback 9.62746 2.0023 -0.208605
thorax 1.02387 0.874765 1.25996
lowerneck 3.83327 -0.412507 -3.40084
upperneck 7.60064 -0.560568 -0.923494
head 1.72425 -0.378327 0.277274
rclavicle 3.85642e-014 -2.59414e-014
rhumerus 47.4516 -18.3816 -34.3099
rradius 52.1955
rwrist -17.8929
rhand -7.57245 4.95275
rfingers 7.12502
rthumb 18.3202 -24.2045
lclavicle 3.85642e-014 -2.59414e-014
lhumerus 21.5162 -30.9579 47.6613
lradius 67.8785
lwrist 27.6175
lhand -11.3645 31.0624
lfingers 7.12502
lthumb 14.6694 60.5235
rfemur -27.8445 1.31818 17.2294
rtibia 32.0449
rfoot -12.0761 -14.0888
rtoes -9.59286
lfemur -26.235 1.16854 -22.1064
ltibia 30.168
lfoot -14.0291 10.7132
ltoes -8.93543
4171
root 0.291528 17.9179 -2.76237 9.06985 -1.61527 1.61815
lowerback 16.3917 1.82483 -3.1238
upperback 9.60435 1.9542 -0.196235
thorax 0.948792 0.853277 1.25662
lowerneck 3.62222 -0.424675 -3.45746
upperneck 7.86275 -0.569065 -0.833068
head 1.84608 -0.387069 0.314864
rclavicle -2.11706e-014 1.47101e-014
rhumerus 47.8447 -19.741 -34.5742
rradius 54.7029
rwrist -19.1603
rhand -7.54822 5.35212
rfingers 7.12502
rthumb 18.3435 -23.803
lclavicle -2.11706e-014 1.47101e-014
lhumerus 21.2316 -30.9052 47.0971
lradius 70.3935
lwrist 28.1689
lhand -12.5578 30.9438
lfingers 7.12502
lthumb 13.5195 60.4849
rfemur -27.8555 1.30944 17.2009
rtibia 31.985
rfoot -11.9437 -14.1996
rtoes -10.2978
lfemur -26.245 1.08386 -22.1172
ltibia 30.1077
lfoot -14.0096 10.7495
ltoes -8.60372
4172
root 0.297033 17.918 -2.75531 9.06431 -1.51905 1.6646
lowerback 16.5134 1.79698 -3.04158
upperback 9.61263 1.9245 -0.213439
thorax 0.89836 0.843063 1.19402
lowerneck 3.41966 -0.46011 -3.36161
upperneck 8.08545 -0.601889 -0.833377
head 1.95318 -0.404469 0.298369
rclavicle -8.34896e-015 3.47873e-015
rhumerus 48.2432 -21.1198 -34.9286
rradius 57.1474
rwrist -20.353
rhand -7.39344 5.92796
rfingers 7.12502
rthumb 18.4924 -23.2131
lclavicle -8.34896e-015 3.47873e-015
lhumerus 21.0494 -30.8558 46.5973
lradius 72.8174
lwrist 28.7753
lhand -13.7821 30.6982
lfingers 7.12502
lthumb 12.3392 60.3141
rfemur -27.8257 1.25577 17.1284
rtibia 31.9823
rfoot -11.8462 -14.2853
rtoes -11.2291
lfemur -26.2117 0.986808 -22.1816
ltibia 30.0809
lfoot -14.0904 10.6798
ltoes -8.53304
4173
root 0.301217 17.9169 -2.74926 9.07503 -1.40988 1.65614
lowerback 16.6019 1.80705 -2.90604
upperback 9.59891 1.95265 -0.217935
thorax 0.839939 0.863781 1.10623
lowerneck 3.35839 -0.533007 -3.08281
upperneck 8.27041 -0.682817 -0.926848
head 2.02264 -0.440952 0.221507
rclavicle -1.02374e-014 3.18055e-015
rhumerus 48.6249 -22.4923 -35.3623
rradius 59.478
rwrist -21.4405
rhand -7.45245 6.77306
rfingers 7.12502
rthumb 18.4356 -22.3733
lclavicle -1.02374e-014 3.18055e-015
lhumerus 20.8873 -30.8588 46.1743
lradius 75.2128
lwrist 29.1197
lhand -14.4533 30.8605
lfingers 7.12502
lthumb 11.692 60.5142
rfemur -27.8067 1.14321 17.1409
rtibia 32.0315
rfoot -12.011 -14.2431
rtoes -10.4089
lfemur -26.2225 0.888463 -22.1723
ltibia 30.1007
lfoot -14.1599 10.5863
ltoes -8.39645
4174
root 0.304749 17.9143 -2.74439 9.08201 -1.28766 1.66759
lowerback 16.6935 1.82259 -2.78598
upperback 9.57733 1.98575 -0.240244
thorax 0.771824 0.886989 1.00736
lowerneck 3.39169 -0.618401 -2.78922
upperneck 8.38423 -0.787425 -0.981442
head 2.05268 -0.486432 0.154234
rclavicle -7.15625e-015 -1.98785e-016
rhumerus 48.9699 -23.8277 -35.8282
rradius 61.9353
rwrist -22.5175
rhand -7.7233 7.3245
rfingers 7.12502
rthumb 18.1751 -21.8464
lclavicle -7.15625e-015 -1.98785e-016
lhumerus 20.6439 -30.8487 45.8274
lradius 77.5519
lwrist 29.2191
lhand -14.7085 30.9453
lfingers 7.12502
lthumb 11.4459 60.6128
rfemur -27.8181 0.999743 17.1394
rtibia 32.1277
rfoot -12.1484 -14.1872
rtoes -9.69804
lfemur -26.2614 0.781876 -22.1849
ltibia 30.1541
lfoot -14.1256 10.6478
ltoes -8.58683
4175
root 0.310243 17.9098 -2.74072 9.11857 -1.15951 1.64851
lowerback 16.7918 1.78645 -2.63367
upperback 9.51579 1.95558 -0.244712
thorax 0.659893 0.880024 0.918278
lowerneck 3.38248 -0.644485 -2.67356
upperneck 8.64184 -0.819078 -0.924616
head 2.13841 -0.500534 0.151951
rclavicle -5.36719e-015 1.2921e-014
rhumerus 49.5103 -24.9289 -36.4971
rradius 64.4276
rwrist -23.4833
rhand -8.08103 7.80567
rfingers 7.12502
rthumb 17.8309 -21.3969
lclavicle -5.36719e-015 1.2921e-014
lhumerus 20.2967 -30.7692 45.6481
lradius 79.6569
lwrist 29.2477
lhand -14.8219 30.801
lfingers 7.12502
lthumb 11.3365 60.4746
rfemur -27.9019 0.89029 17.1498
rtibia 32.2504
rfoot -12.1744 -14.2068
rtoes -9.69864
lfemur -26.3667 0.707615 -22.1847
ltibia 30.2612
lfoot -14.1386 10.7084
ltoes -8.80688
